<svg width="67" height="67" viewBox="0 0 67 67" fill="none" xmlns="http://www.w3.org/2000/svg">
<path d="M62.98 34.1992C62.98 32.0217 62.7846 29.928 62.4217 27.918H33.5V39.8105H50.0267C49.3008 43.6351 47.1233 46.8734 43.8571 49.0509V56.7838H53.8233C59.63 51.4238 62.98 43.5513 62.98 34.1992Z" fill="#4285F4"/>
<path d="M33.5001 64.2091C41.7914 64.2091 48.7426 61.4733 53.8234 56.7833L43.8572 49.0504C41.1214 50.8929 37.6318 52.0095 33.5001 52.0095C25.5159 52.0095 18.7322 46.6216 16.3034 39.3633H6.08594V47.2916C11.1389 57.3137 21.4959 64.2091 33.5001 64.2091Z" fill="#34A853"/>
<path d="M16.3032 39.3338C15.689 37.4913 15.3261 35.5372 15.3261 33.4992C15.3261 31.4613 15.689 29.5072 16.3032 27.6647V19.7363H6.08567C3.99192 23.868 2.7915 28.5301 2.7915 33.4992C2.7915 38.4684 3.99192 43.1305 6.08567 47.2622L14.0419 41.0647L16.3032 39.3338Z" fill="#FBBC05"/>
<path d="M33.5001 15.0205C38.0226 15.0205 42.0426 16.5838 45.253 19.5988L54.0468 10.8051C48.7147 5.83589 41.7914 2.79297 33.5001 2.79297C21.4959 2.79297 11.1389 9.68839 6.08594 19.7384L16.3034 27.6667C18.7322 20.4084 25.5159 15.0205 33.5001 15.0205Z" fill="#EA4335"/>
</svg>
