<svg width="32" height="32" viewBox="0 0 32 32" fill="none" xmlns="http://www.w3.org/2000/svg">
<path d="M32 16.0002C32 17.0205 31.9046 18.0183 31.7218 18.9852C30.4369 25.7963 24.8356 31.082 17.8678 31.8922C17.2553 31.9631 16.632 32 16 32C7.1632 32 0 24.837 0 16.0002C0 7.16345 7.1632 0 16 0C24.8369 0 32 7.16345 32 16.0002Z" fill="#AF4C0F"/>
<path d="M22.7347 22.0814C22.7365 23.7491 21.3484 25.0933 19.6638 25.0183C19.3174 25.0031 18.9853 24.9265 18.6787 24.799C17.8812 24.4675 17.0325 24.2771 16.1691 24.2779H15.9366C15.0474 24.2787 14.1684 24.4591 13.3482 24.8026C12.9606 24.9646 12.5304 25.0464 12.0789 25.0263C10.5737 24.959 9.35061 23.7383 9.28013 22.2337C9.23391 21.2411 9.68002 20.3504 10.3955 19.7851C11.4237 18.9737 12.1419 17.8312 12.4809 16.5656C12.8739 15.0955 13.8081 13.5457 15.9972 13.5437C18.1632 13.5413 19.101 15.0963 19.5037 16.568C19.852 17.8436 20.6083 18.9661 21.6382 19.7951C22.3063 20.3327 22.7338 21.157 22.7347 22.0814Z" fill="#F5F1E8"/>
<path d="M11.1124 15.6308C11.114 17.1349 10.111 18.3552 8.87202 18.3564C7.6333 18.3576 6.62799 17.1394 6.62647 15.6352C6.62498 14.1311 7.62789 12.9108 8.8666 12.9096C10.1053 12.9084 11.111 14.1267 11.1124 15.6308Z" fill="#F5F1E8"/>
<path d="M15.3248 9.69819C15.3263 11.2023 14.3234 12.423 13.0847 12.4238C11.846 12.4254 10.8407 11.2067 10.8389 9.70261C10.8373 8.19888 11.8403 6.97818 13.0793 6.97697C14.318 6.97577 15.3233 8.19407 15.3248 9.69819Z" fill="#F5F1E8"/>
<path d="M25.3737 15.6158C25.3752 17.1199 24.3722 18.3406 23.1335 18.3418C21.8945 18.343 20.8892 17.1247 20.8877 15.6206C20.8862 14.1164 21.8891 12.8957 23.1278 12.8945C24.3665 12.8933 25.3722 14.1116 25.3737 15.6158Z" fill="#F5F1E8"/>
<path d="M21.1456 9.69291C21.1471 11.197 20.1442 12.4177 18.9052 12.4189C17.6665 12.4201 16.6612 11.2019 16.6597 9.69772C16.6582 8.19359 17.6611 6.9733 18.8998 6.97169C20.1385 6.97049 21.1442 8.18878 21.1456 9.69291Z" fill="#F5F1E8"/>
</svg>
